<svg id="svg" version="1.1" xmlns="http://www.w3.org/2000/svg" xmlns:xlink="http://www.w3.org/1999/xlink" width="400" height="400" viewBox="0, 0, 400,400">
    <g id="svgg">
        <path id="path0" d="M161.400 53.778 C 159.804 54.317,154.966 55.807,150.800 57.042 C 149.590 57.401,148.150 57.843,147.600 58.024 C 147.050 58.205,144.710 58.926,142.400 59.626 C 137.268 61.180,132.769 62.576,128.811 63.843 C 127.167 64.369,125.590 64.800,125.306 64.800 C 125.022 64.800,124.477 64.969,124.095 65.177 C 123.713 65.384,122.320 65.852,121.000 66.218 C 119.680 66.583,118.150 67.031,117.600 67.212 C 116.270 67.652,111.177 69.210,106.000 70.761 C 103.690 71.453,100.450 72.442,98.800 72.958 C 97.150 73.475,94.720 74.204,93.400 74.580 C 92.080 74.956,90.550 75.419,90.000 75.609 C 89.450 75.799,87.110 76.519,84.800 77.210 C 82.490 77.901,80.150 78.618,79.600 78.804 C 79.050 78.991,77.070 79.607,75.200 80.175 C 73.330 80.743,71.125 81.415,70.300 81.668 C 68.743 82.146,67.967 84.400,69.360 84.400 C 70.240 84.400,75.731 87.323,77.658 88.816 C 83.352 93.229,86.329 98.612,87.771 107.100 C 88.573 111.818,88.745 316.688,87.951 320.976 C 85.857 332.285,80.103 339.998,70.300 344.638 C 69.203 345.157,68.800 345.597,68.800 346.274 L 68.800 347.200 126.400 347.200 L 184.000 347.200 184.000 346.250 C 184.000 345.498,183.729 345.246,182.700 345.040 C 177.807 344.064,169.803 338.266,167.956 334.361 C 166.579 331.449,166.369 330.930,165.713 328.800 C 165.083 326.754,165.027 317.024,164.913 189.900 L 164.790 53.200 163.895 53.219 C 163.403 53.230,162.280 53.481,161.400 53.778 M281.409 107.421 C 280.754 107.765,280.124 108.196,280.009 108.378 C 279.894 108.560,278.720 109.937,277.400 111.438 C 276.080 112.938,274.208 115.074,273.241 116.183 C 272.274 117.292,270.537 119.280,269.383 120.600 C 267.522 122.727,259.644 131.774,256.842 135.001 C 252.586 139.904,241.785 152.238,241.607 152.400 C 241.486 152.510,240.870 153.230,240.238 154.000 C 239.606 154.770,237.989 156.648,236.644 158.173 C 232.249 163.160,228.743 167.172,224.400 172.184 C 223.630 173.073,222.910 173.890,222.800 174.000 C 222.690 174.110,220.896 176.180,218.813 178.600 C 216.731 181.020,214.657 183.360,214.204 183.800 C 213.751 184.240,213.115 184.978,212.791 185.440 C 212.254 186.203,209.768 189.064,205.371 193.979 C 204.476 194.981,202.510 197.240,201.003 199.000 C 197.963 202.550,194.023 207.085,193.389 207.761 C 193.163 208.003,191.185 210.270,188.994 212.800 C 186.803 215.330,184.915 217.490,184.799 217.600 C 184.683 217.710,183.511 219.060,182.194 220.600 C 180.877 222.140,179.706 223.490,179.591 223.600 C 179.476 223.710,177.676 225.780,175.591 228.200 C 173.506 230.620,171.705 232.690,171.590 232.800 C 171.474 232.910,170.412 234.124,169.231 235.499 L 167.083 237.997 170.798 245.299 C 172.842 249.314,175.905 255.300,177.604 258.600 C 179.304 261.900,182.811 268.740,185.398 273.800 C 187.985 278.860,191.316 285.340,192.799 288.200 C 195.316 293.052,197.341 297.002,209.306 320.400 C 216.441 334.353,221.657 344.473,222.396 345.795 L 223.069 347.000 277.013 347.101 C 306.682 347.157,331.108 347.052,331.292 346.868 C 332.002 346.158,331.086 345.370,328.692 344.630 C 327.321 344.206,325.930 343.727,325.600 343.565 C 325.270 343.403,323.837 342.702,322.415 342.009 C 317.256 339.493,313.262 336.376,308.865 331.435 C 305.826 328.021,303.200 324.667,303.200 324.200 C 303.200 324.061,302.750 323.357,302.200 322.636 C 301.650 321.914,301.200 321.116,301.200 320.862 C 301.200 320.608,301.061 320.400,300.891 320.400 C 300.721 320.400,300.226 319.728,299.791 318.906 C 299.356 318.085,298.176 315.970,297.168 314.206 C 296.161 312.443,294.883 310.190,294.329 309.200 C 293.106 307.016,288.052 298.018,286.803 295.800 C 286.307 294.920,285.136 292.850,284.200 291.200 C 282.454 288.122,281.713 286.803,279.877 283.506 C 279.297 282.464,278.029 280.214,277.060 278.506 C 274.993 274.862,274.388 273.788,270.800 267.400 C 267.237 261.056,266.609 259.942,264.600 256.400 C 262.593 252.861,261.789 251.428,260.002 248.200 C 259.272 246.880,258.252 245.129,257.737 244.308 C 257.222 243.487,256.800 242.748,256.800 242.665 C 256.800 242.583,255.925 240.995,254.856 239.137 C 253.787 237.279,252.318 234.688,251.591 233.379 C 249.680 229.940,248.908 228.563,247.000 225.200 C 244.819 221.355,244.032 219.948,242.412 217.000 C 241.687 215.680,240.962 214.420,240.800 214.200 C 240.638 213.980,239.913 212.720,239.188 211.400 C 238.463 210.080,237.568 208.460,237.200 207.800 C 236.832 207.140,235.933 205.520,235.202 204.200 C 234.471 202.880,233.690 201.504,233.466 201.142 C 232.989 200.370,233.153 200.185,236.600 197.601 C 237.920 196.612,239.090 195.704,239.200 195.585 C 239.310 195.465,241.380 193.852,243.800 192.000 C 246.220 190.148,248.290 188.526,248.400 188.395 C 248.510 188.264,250.920 186.367,253.756 184.178 C 256.592 181.990,260.822 178.702,263.156 176.871 C 265.490 175.040,268.500 172.700,269.844 171.671 C 276.528 166.554,282.621 161.817,282.800 161.600 C 282.910 161.466,285.320 159.567,288.154 157.378 C 290.989 155.190,295.579 151.635,298.354 149.479 C 301.130 147.322,304.030 145.072,304.799 144.479 C 315.645 136.119,315.670 136.603,303.758 124.593 C 297.657 118.442,289.455 110.771,286.600 108.547 C 284.553 106.953,282.957 106.606,281.409 107.421 " stroke="none" fill="#fbfbfb" fill-rule="evenodd"></path>
        <path id="path1" d="M0.000 200.000 L 0.000 400.000 200.000 400.000 L 400.000 400.000 400.000 200.000 L 400.000 0.000 200.000 0.000 L 0.000 0.000 0.000 200.000 M165.608 189.800 C 165.777 301.446,165.914 327.335,166.341 328.800 C 166.909 330.746,168.694 334.630,169.467 335.600 C 171.498 338.151,172.297 338.966,173.746 339.959 C 176.212 341.649,179.511 343.319,182.119 344.198 C 184.403 344.967,184.436 344.999,184.319 346.389 L 184.200 347.800 126.200 347.800 L 68.200 347.800 68.200 346.459 C 68.200 345.306,68.424 344.998,69.800 344.255 C 74.489 341.722,76.299 340.469,78.754 338.056 C 81.187 335.664,81.998 334.620,84.102 331.166 C 85.056 329.600,86.675 324.525,87.165 321.567 C 87.758 317.977,87.780 111.609,87.187 107.477 C 86.575 103.207,84.414 96.766,83.203 95.600 C 83.089 95.490,82.494 94.727,81.881 93.904 C 79.990 91.368,73.873 86.400,72.641 86.400 C 70.997 86.400,68.000 84.174,68.000 82.953 C 68.000 81.917,68.169 81.600,68.720 81.600 C 69.116 81.600,69.611 81.450,69.820 81.268 C 70.029 81.085,71.370 80.611,72.800 80.215 C 74.230 79.819,76.660 79.095,78.200 78.606 C 83.651 76.875,85.298 76.400,85.851 76.400 C 86.159 76.400,86.723 76.226,87.105 76.013 C 88.120 75.447,91.514 74.400,92.334 74.400 C 92.722 74.400,93.211 74.250,93.420 74.068 C 93.629 73.885,94.970 73.415,96.400 73.023 C 97.830 72.632,99.360 72.177,99.800 72.012 C 100.240 71.847,101.590 71.419,102.800 71.061 C 104.010 70.703,105.900 70.144,107.000 69.819 C 108.100 69.494,110.435 68.772,112.189 68.214 C 113.943 67.656,115.687 67.200,116.065 67.200 C 116.443 67.200,116.858 67.030,116.986 66.823 C 117.114 66.616,118.027 66.325,119.014 66.177 C 120.002 66.029,120.908 65.748,121.029 65.554 C 121.149 65.359,121.676 65.200,122.200 65.200 C 122.724 65.200,123.254 65.036,123.378 64.835 C 123.503 64.634,124.361 64.342,125.287 64.185 C 126.212 64.029,127.246 63.760,127.585 63.587 C 128.584 63.078,132.429 62.000,133.246 62.000 C 133.661 62.000,134.000 61.820,134.000 61.600 C 134.000 61.380,134.299 61.200,134.665 61.200 C 135.341 61.200,139.143 60.163,140.600 59.581 C 141.040 59.405,142.480 58.962,143.800 58.597 C 145.120 58.232,146.476 57.791,146.813 57.618 C 147.150 57.444,148.050 57.178,148.813 57.028 C 149.576 56.877,150.560 56.602,151.000 56.417 C 151.440 56.232,152.880 55.771,154.200 55.392 C 156.607 54.703,162.650 52.864,163.400 52.593 C 163.620 52.513,164.160 52.482,164.600 52.524 C 165.398 52.600,165.401 52.968,165.608 189.800 M286.240 107.563 C 290.602 110.817,304.016 123.654,310.462 130.745 C 314.578 135.272,314.528 137.692,310.248 141.000 C 309.394 141.660,307.594 143.062,306.248 144.116 C 304.902 145.170,302.450 147.045,300.800 148.282 C 299.150 149.518,297.710 150.637,297.600 150.766 C 297.490 150.896,296.320 151.811,295.000 152.800 C 293.680 153.789,292.510 154.693,292.400 154.809 C 292.290 154.926,291.390 155.641,290.400 156.400 C 289.410 157.159,288.510 157.874,288.400 157.991 C 288.290 158.107,287.120 159.011,285.800 160.000 C 284.480 160.989,283.310 161.893,283.200 162.009 C 283.090 162.126,282.190 162.841,281.200 163.600 C 280.210 164.359,279.310 165.074,279.200 165.191 C 279.090 165.307,277.924 166.212,276.609 167.201 C 275.294 168.190,273.944 169.223,273.609 169.495 C 272.314 170.547,264.091 176.950,262.000 178.533 C 260.790 179.450,258.891 180.920,257.779 181.800 C 256.668 182.680,254.713 184.210,253.435 185.200 C 252.156 186.190,250.366 187.586,249.455 188.303 C 248.545 189.019,247.614 189.739,247.386 189.903 C 247.159 190.066,246.047 190.965,244.915 191.900 C 243.783 192.835,242.754 193.600,242.628 193.600 C 242.503 193.600,242.077 193.915,241.683 194.300 C 241.288 194.685,240.466 195.360,239.856 195.800 C 234.731 199.498,233.865 200.461,234.458 201.808 C 234.747 202.463,235.077 203.090,235.192 203.200 C 235.306 203.310,235.715 203.985,236.100 204.700 C 236.485 205.415,237.115 206.585,237.500 207.300 C 237.885 208.015,238.292 208.690,238.404 208.800 C 238.516 208.910,238.966 209.720,239.404 210.600 C 239.842 211.480,240.335 212.260,240.500 212.333 C 240.665 212.407,240.800 212.605,240.800 212.774 C 240.800 212.943,241.790 214.805,243.000 216.912 C 244.210 219.018,245.200 220.935,245.200 221.171 C 245.200 221.407,245.335 221.601,245.500 221.603 C 245.665 221.605,245.993 222.010,246.229 222.503 C 246.464 222.996,247.926 225.650,249.476 228.400 C 251.027 231.150,252.701 234.120,253.197 235.000 C 253.693 235.880,254.864 237.950,255.800 239.600 C 258.732 244.768,261.208 249.216,262.259 251.200 C 262.666 251.970,263.090 252.690,263.200 252.800 C 263.454 253.054,264.509 254.953,265.907 257.674 C 266.508 258.843,267.112 259.890,267.249 260.000 C 267.387 260.110,268.273 261.640,269.219 263.400 C 270.166 265.160,271.358 267.271,271.870 268.092 C 272.381 268.913,272.800 269.681,272.800 269.800 C 272.800 269.919,273.222 270.687,273.737 271.508 C 274.252 272.329,275.272 274.080,276.002 275.400 C 277.789 278.628,278.593 280.061,280.600 283.600 C 282.535 287.012,283.046 287.918,286.007 293.200 C 287.179 295.290,289.097 298.671,290.269 300.714 C 291.441 302.757,292.400 304.516,292.400 304.622 C 292.400 304.729,292.822 305.487,293.337 306.308 C 294.135 307.578,295.477 309.942,297.363 313.400 C 297.604 313.840,297.890 314.290,298.000 314.400 C 298.110 314.510,298.515 315.185,298.900 315.900 C 300.423 318.729,301.014 319.771,301.322 320.176 C 301.499 320.409,302.697 322.220,303.985 324.200 C 309.266 332.322,318.701 340.700,324.600 342.506 C 330.621 344.348,331.800 344.988,331.800 346.411 L 331.800 347.800 277.473 347.901 C 234.344 347.982,223.047 347.900,222.666 347.501 C 222.402 347.226,221.834 346.190,221.404 345.200 C 220.974 344.210,220.527 343.310,220.411 343.200 C 220.295 343.090,218.962 340.570,217.450 337.600 C 211.334 325.592,205.539 314.278,202.597 308.600 C 200.887 305.300,197.598 298.910,195.288 294.400 C 192.979 289.890,189.649 283.410,187.889 280.000 C 184.630 273.685,184.317 273.063,182.458 269.200 C 181.876 267.990,181.310 266.910,181.200 266.800 C 180.975 266.575,177.056 258.941,171.034 247.000 C 168.815 242.600,166.865 238.940,166.700 238.867 C 166.079 238.591,166.442 237.678,167.700 236.357 C 168.415 235.606,169.720 234.096,170.600 233.001 C 171.480 231.905,172.470 230.731,172.800 230.391 C 173.130 230.051,174.660 228.342,176.200 226.592 C 177.740 224.842,179.180 223.207,179.400 222.958 C 179.620 222.710,180.236 221.987,180.769 221.353 C 182.177 219.678,186.100 215.147,186.800 214.388 C 187.130 214.030,188.480 212.498,189.800 210.984 C 191.120 209.470,192.847 207.504,193.637 206.616 C 194.427 205.727,195.507 204.477,196.037 203.837 C 196.567 203.198,199.160 200.215,201.800 197.209 C 204.440 194.202,207.590 190.595,208.800 189.193 C 211.744 185.780,216.933 179.849,217.192 179.600 C 217.440 179.361,221.457 174.686,222.831 173.036 C 223.364 172.396,224.746 170.845,225.902 169.589 C 227.058 168.333,228.558 166.608,229.235 165.756 C 229.913 164.903,230.587 164.115,230.733 164.003 C 230.880 163.891,232.079 162.540,233.398 161.000 C 234.717 159.460,235.977 158.000,236.198 157.756 C 237.304 156.535,239.237 154.321,241.398 151.798 C 243.837 148.953,252.035 139.565,252.400 139.200 C 252.510 139.090,253.679 137.740,254.998 136.200 C 256.317 134.660,257.577 133.200,257.798 132.956 C 258.909 131.729,260.838 129.518,262.997 126.998 C 264.316 125.459,265.756 123.836,266.197 123.391 C 266.639 122.946,267.654 121.776,268.453 120.791 C 269.252 119.806,270.332 118.536,270.853 117.969 C 271.860 116.873,275.549 112.658,278.200 109.574 C 281.225 106.055,283.466 105.494,286.240 107.563 " stroke="none" fill="#64548c" fill-rule="evenodd"></path>
        <path id="path2" d="M162.400 53.185 C 161.979 53.460,162.247 53.505,163.299 53.336 L 164.799 53.096 164.900 188.348 L 165.002 323.600 165.001 188.300 L 165.000 53.000 164.000 52.896 C 163.450 52.839,162.730 52.969,162.400 53.185 M129.256 63.259 C 128.517 63.472,127.987 63.720,128.079 63.812 C 128.281 64.014,131.200 63.237,131.200 62.981 C 131.200 62.746,130.882 62.791,129.256 63.259 M125.800 64.400 C 125.296 64.617,125.222 64.744,125.600 64.744 C 125.930 64.744,126.560 64.589,127.000 64.400 C 127.504 64.183,127.578 64.056,127.200 64.056 C 126.870 64.056,126.240 64.211,125.800 64.400 M122.400 65.427 L 121.000 65.993 122.400 65.754 C 123.170 65.623,123.971 65.355,124.180 65.158 C 124.716 64.653,124.074 64.750,122.400 65.427 M112.600 68.400 C 112.096 68.617,112.022 68.744,112.400 68.744 C 112.730 68.744,113.360 68.589,113.800 68.400 C 114.304 68.183,114.378 68.056,114.000 68.056 C 113.670 68.056,113.040 68.211,112.600 68.400 M109.656 69.259 C 108.917 69.472,108.387 69.720,108.479 69.812 C 108.681 70.014,111.600 69.237,111.600 68.981 C 111.600 68.746,111.282 68.791,109.656 69.259 M102.200 71.600 C 101.696 71.817,101.622 71.944,102.000 71.944 C 102.330 71.944,102.960 71.789,103.400 71.600 C 103.904 71.383,103.978 71.256,103.600 71.256 C 103.270 71.256,102.640 71.411,102.200 71.600 M98.200 72.800 C 97.696 73.017,97.622 73.144,98.000 73.144 C 98.330 73.144,98.960 72.989,99.400 72.800 C 99.904 72.583,99.978 72.456,99.600 72.456 C 99.270 72.456,98.640 72.611,98.200 72.800 M92.456 74.459 C 91.717 74.672,91.187 74.920,91.279 75.012 C 91.481 75.214,94.400 74.437,94.400 74.181 C 94.400 73.946,94.082 73.991,92.456 74.459 M74.600 80.000 C 74.096 80.217,74.022 80.344,74.400 80.344 C 74.730 80.344,75.360 80.189,75.800 80.000 C 76.304 79.783,76.378 79.656,76.000 79.656 C 75.670 79.656,75.040 79.811,74.600 80.000 M72.000 80.800 C 71.467 81.145,71.467 81.188,72.000 81.188 C 72.330 81.188,72.870 81.013,73.200 80.800 C 73.733 80.455,73.733 80.412,73.200 80.412 C 72.870 80.412,72.330 80.587,72.000 80.800 M68.556 82.171 C 68.435 82.485,68.416 83.160,68.514 83.671 C 68.652 84.395,68.703 84.319,68.746 83.329 C 68.782 82.486,69.035 81.997,69.500 81.876 C 70.156 81.704,70.155 81.690,69.487 81.646 C 69.096 81.621,68.676 81.857,68.556 82.171 M69.600 84.733 C 69.930 84.936,70.650 85.224,71.200 85.371 C 71.895 85.557,72.017 85.525,71.600 85.267 C 71.270 85.064,70.550 84.776,70.000 84.629 C 69.305 84.443,69.183 84.475,69.600 84.733 M78.370 89.732 C 79.389 90.854,79.608 90.993,79.587 90.500 C 79.581 90.335,79.086 89.854,78.487 89.432 L 77.400 88.664 78.370 89.732 M86.644 103.000 C 86.973 104.471,87.202 104.790,87.194 103.767 C 87.191 103.345,87.005 102.730,86.782 102.400 C 86.485 101.962,86.448 102.124,86.644 103.000 M87.800 214.346 C 87.800 273.142,87.917 320.832,88.060 320.324 C 88.395 319.134,88.388 110.185,88.053 108.623 C 87.914 107.975,87.800 155.551,87.800 214.346 M278.604 109.596 C 277.974 110.254,277.535 110.856,277.629 110.934 C 277.723 111.012,278.313 110.474,278.939 109.738 C 280.354 108.077,280.145 107.988,278.604 109.596 M289.200 110.496 C 289.200 110.596,291.135 112.450,293.500 114.618 C 295.865 116.785,297.260 117.965,296.600 117.241 C 295.186 115.690,289.200 110.233,289.200 110.496 M274.400 114.400 C 273.035 115.940,272.008 117.200,272.118 117.200 C 272.228 117.200,273.435 115.940,274.800 114.400 C 276.165 112.860,277.192 111.600,277.082 111.600 C 276.972 111.600,275.765 112.860,274.400 114.400 M270.400 119.000 C 269.654 119.770,269.213 120.387,269.422 120.371 C 269.782 120.344,272.254 117.600,271.918 117.600 C 271.829 117.600,271.146 118.230,270.400 119.000 M266.149 123.882 C 264.857 125.357,264.006 126.437,264.259 126.283 C 264.824 125.939,268.953 121.200,268.688 121.200 C 268.584 121.200,267.441 122.407,266.149 123.882 M261.978 128.700 L 260.600 130.200 262.100 128.822 C 263.496 127.538,263.784 127.200,263.478 127.200 C 263.412 127.200,262.737 127.875,261.978 128.700 M309.000 130.000 C 310.083 131.100,311.047 132.000,311.141 132.000 C 311.480 132.000,307.791 128.080,307.415 128.041 C 307.203 128.018,307.917 128.900,309.000 130.000 M259.375 131.700 L 258.200 133.000 259.500 131.825 C 260.215 131.179,260.800 130.594,260.800 130.525 C 260.800 130.216,260.470 130.488,259.375 131.700 M311.961 133.354 C 313.229 135.098,313.076 137.239,311.549 139.086 L 310.298 140.600 311.749 139.106 C 313.608 137.191,313.761 135.050,312.161 133.322 L 311.122 132.200 311.961 133.354 M256.800 134.600 C 256.054 135.370,255.613 135.987,255.822 135.971 C 256.182 135.944,258.654 133.200,258.318 133.200 C 258.229 133.200,257.546 133.830,256.800 134.600 M253.975 137.900 C 251.104 141.005,250.257 142.000,250.484 142.000 C 250.612 142.000,251.835 140.740,253.200 139.200 C 255.798 136.269,256.371 135.309,253.975 137.900 M308.200 141.844 L 306.600 143.276 308.300 142.004 C 309.763 140.910,310.291 140.383,309.900 140.406 C 309.845 140.409,309.080 141.056,308.200 141.844 M248.621 143.929 L 247.443 145.400 248.921 144.022 C 250.449 142.597,250.610 142.380,250.100 142.429 C 249.935 142.445,249.270 143.120,248.621 143.929 M304.167 145.029 L 302.600 146.458 304.300 145.162 C 305.853 143.978,306.232 143.600,305.867 143.600 C 305.793 143.600,305.028 144.243,304.167 145.029 M299.000 149.044 L 297.400 150.476 299.100 149.204 C 300.563 148.110,301.091 147.583,300.700 147.606 C 300.645 147.609,299.880 148.256,299.000 149.044 M243.225 150.169 L 241.850 151.800 243.405 150.313 C 244.260 149.496,244.879 148.762,244.780 148.683 C 244.681 148.603,243.981 149.272,243.225 150.169 M293.800 153.044 L 292.200 154.476 293.900 153.204 C 295.363 152.110,295.891 151.583,295.500 151.606 C 295.445 151.609,294.680 152.256,293.800 153.044 M238.768 155.300 C 237.584 156.675,236.932 157.548,237.320 157.241 C 238.134 156.594,241.362 152.800,241.097 152.800 C 241.000 152.800,239.951 153.925,238.768 155.300 M288.200 157.444 L 286.600 158.876 288.300 157.604 C 289.763 156.510,290.291 155.983,289.900 156.006 C 289.845 156.009,289.080 156.656,288.200 157.444 M285.200 159.660 C 284.650 160.118,283.851 160.738,283.424 161.037 C 282.997 161.337,282.728 161.661,282.825 161.758 C 282.922 161.855,283.811 161.234,284.800 160.379 C 286.651 158.780,286.991 158.168,285.200 159.660 M232.181 162.900 L 230.600 164.600 232.300 163.019 C 233.881 161.548,234.184 161.200,233.881 161.200 C 233.816 161.200,233.051 161.965,232.181 162.900 M279.000 164.644 L 277.400 166.076 279.100 164.804 C 280.563 163.710,281.091 163.183,280.700 163.206 C 280.645 163.209,279.880 163.856,279.000 164.644 M275.200 167.446 C 274.210 168.219,273.130 169.138,272.800 169.488 C 272.470 169.838,273.325 169.276,274.700 168.239 C 276.075 167.202,277.200 166.274,277.200 166.177 C 277.200 165.899,277.106 165.959,275.200 167.446 M269.100 172.206 C 267.835 173.199,266.800 174.110,266.800 174.229 C 266.800 174.349,267.880 173.616,269.200 172.600 C 271.277 171.002,271.907 170.399,271.500 170.400 C 271.445 170.400,270.365 171.213,269.100 172.206 M224.006 172.194 C 223.263 172.961,222.732 173.650,222.827 173.725 C 222.922 173.800,223.606 173.173,224.346 172.331 C 226.029 170.418,225.812 170.331,224.006 172.194 M264.600 175.844 L 263.000 177.276 264.700 176.004 C 266.163 174.910,266.691 174.383,266.300 174.406 C 266.245 174.409,265.480 175.056,264.600 175.844 M218.825 178.169 L 217.450 179.800 219.005 178.313 C 219.860 177.496,220.479 176.762,220.380 176.683 C 220.281 176.603,219.581 177.272,218.825 178.169 M259.200 180.037 L 257.400 181.671 259.094 180.407 C 260.587 179.292,261.492 178.398,261.124 178.401 C 261.056 178.402,260.190 179.138,259.200 180.037 M216.006 181.394 C 215.263 182.161,214.732 182.850,214.827 182.925 C 214.922 183.000,215.606 182.373,216.346 181.531 C 218.029 179.618,217.812 179.531,216.006 181.394 M255.200 183.046 C 254.210 183.819,253.130 184.738,252.800 185.088 C 252.470 185.438,253.325 184.876,254.700 183.839 C 256.075 182.802,257.200 181.874,257.200 181.777 C 257.200 181.499,257.106 181.559,255.200 183.046 M211.075 187.005 C 210.016 188.212,209.257 189.200,209.387 189.200 C 209.639 189.200,211.847 186.777,212.723 185.539 C 213.661 184.213,213.037 184.768,211.075 187.005 M250.046 187.021 C 249.081 187.779,248.466 188.400,248.679 188.400 C 248.892 188.400,249.772 187.777,250.633 187.017 C 252.647 185.238,252.310 185.240,250.046 187.021 M206.125 192.700 C 202.661 196.612,200.701 199.049,202.989 196.600 C 205.775 193.617,208.904 190.000,208.698 190.000 C 208.598 190.000,207.440 191.215,206.125 192.700 M244.600 191.444 L 243.000 192.876 244.700 191.604 C 246.163 190.510,246.691 189.983,246.300 190.006 C 246.245 190.009,245.480 190.656,244.600 191.444 M235.669 198.231 C 234.717 198.984,234.102 199.600,234.302 199.600 C 234.503 199.600,235.372 198.977,236.233 198.217 C 238.237 196.447,237.914 196.455,235.669 198.231 M195.925 204.417 C 194.536 205.966,193.327 207.444,193.239 207.700 C 193.150 207.957,193.690 207.455,194.438 206.584 C 195.186 205.713,195.889 204.906,195.999 204.792 C 197.665 203.062,198.904 201.600,198.704 201.600 C 198.565 201.600,197.314 202.868,195.925 204.417 M191.175 209.900 C 188.343 212.964,187.456 214.000,187.667 214.000 C 187.786 214.000,189.003 212.740,190.372 211.200 C 192.978 208.268,193.569 207.311,191.175 209.900 M186.006 215.794 C 185.263 216.561,184.732 217.250,184.827 217.325 C 184.922 217.400,185.606 216.773,186.346 215.931 C 188.029 214.018,187.812 213.931,186.006 215.794 M181.777 220.609 C 180.517 222.045,179.556 223.275,179.643 223.344 C 179.729 223.412,180.843 222.238,182.118 220.734 C 183.393 219.230,184.353 218.000,184.252 218.000 C 184.151 218.000,183.037 219.174,181.777 220.609 M176.400 226.800 C 175.035 228.340,174.008 229.600,174.118 229.600 C 174.228 229.600,175.435 228.340,176.800 226.800 C 178.165 225.260,179.192 224.000,179.082 224.000 C 178.972 224.000,177.765 225.260,176.400 226.800 M172.261 231.429 C 171.634 232.183,171.274 232.787,171.461 232.771 C 171.647 232.755,172.313 232.125,172.939 231.371 C 173.566 230.617,173.926 230.013,173.739 230.029 C 173.553 230.045,172.887 230.675,172.261 231.429 M169.568 234.700 C 166.820 237.657,166.687 237.879,167.194 238.671 C 167.638 239.365,167.649 239.363,167.421 238.642 C 167.250 238.102,167.765 237.212,169.218 235.542 C 171.494 232.925,171.718 232.387,169.568 234.700 M254.400 238.400 C 254.849 239.280,255.306 240.000,255.416 240.000 C 255.526 240.000,255.249 239.280,254.800 238.400 C 254.351 237.520,253.894 236.800,253.784 236.800 C 253.674 236.800,253.951 237.520,254.400 238.400 M171.400 247.200 C 172.176 248.740,172.900 250.000,173.010 250.000 C 173.120 250.000,172.576 248.740,171.800 247.200 C 171.024 245.660,170.300 244.400,170.190 244.400 C 170.080 244.400,170.624 245.660,171.400 247.200 M185.281 274.191 C 185.759 275.176,186.219 275.914,186.303 275.830 C 186.484 275.649,184.868 272.400,184.597 272.400 C 184.494 272.400,184.802 273.206,185.281 274.191 M277.200 278.800 C 277.649 279.680,278.106 280.400,278.216 280.400 C 278.326 280.400,278.049 279.680,277.600 278.800 C 277.151 277.920,276.694 277.200,276.584 277.200 C 276.474 277.200,276.751 277.920,277.200 278.800 M195.000 293.200 C 195.776 294.740,196.500 296.000,196.610 296.000 C 196.720 296.000,196.176 294.740,195.400 293.200 C 194.624 291.660,193.900 290.400,193.790 290.400 C 193.680 290.400,194.224 291.660,195.000 293.200 M291.600 304.400 C 292.049 305.280,292.506 306.000,292.616 306.000 C 292.726 306.000,292.449 305.280,292.000 304.400 C 291.551 303.520,291.094 302.800,290.984 302.800 C 290.874 302.800,291.151 303.520,291.600 304.400 M201.681 306.191 C 202.159 307.176,202.619 307.914,202.703 307.830 C 202.884 307.649,201.268 304.400,200.997 304.400 C 200.894 304.400,201.202 305.206,201.681 306.191 M203.800 310.400 C 204.357 311.500,204.903 312.400,205.013 312.400 C 205.123 312.400,204.757 311.500,204.200 310.400 C 203.643 309.300,203.097 308.400,202.987 308.400 C 202.877 308.400,203.243 309.300,203.800 310.400 M296.800 313.600 C 297.249 314.480,297.706 315.200,297.816 315.200 C 297.926 315.200,297.649 314.480,297.200 313.600 C 296.751 312.720,296.294 312.000,296.184 312.000 C 296.074 312.000,296.351 312.720,296.800 313.600 M299.203 317.690 C 299.201 317.850,299.559 318.570,299.999 319.290 C 300.438 320.011,300.796 320.420,300.796 320.200 C 300.795 319.980,300.437 319.260,300.000 318.600 C 299.563 317.940,299.204 317.531,299.203 317.690 M87.000 324.000 C 86.848 324.691,86.807 325.341,86.909 325.442 C 87.011 325.544,87.209 325.053,87.350 324.350 C 87.683 322.683,87.360 322.360,87.000 324.000 M303.250 324.200 C 303.570 325.052,305.416 327.590,305.720 327.595 C 305.897 327.598,305.546 326.925,304.942 326.100 C 303.610 324.280,303.040 323.641,303.250 324.200 M165.228 325.833 C 165.244 326.475,165.416 327.360,165.610 327.800 C 165.847 328.334,165.886 328.002,165.727 326.800 C 165.446 324.680,165.188 324.180,165.228 325.833 M166.218 330.500 C 166.368 330.995,166.655 331.576,166.856 331.791 C 167.057 332.006,167.019 331.601,166.772 330.891 C 166.265 329.438,165.797 329.108,166.218 330.500 M168.364 335.133 C 168.580 335.536,169.071 336.121,169.455 336.433 C 169.887 336.784,169.790 336.504,169.201 335.700 C 168.151 334.265,167.757 333.998,168.364 335.133 M314.955 337.328 C 315.811 338.079,317.071 339.015,317.755 339.409 C 319.502 340.413,319.014 339.971,316.000 337.819 C 314.142 336.492,313.844 336.352,314.955 337.328 M79.200 338.200 C 78.228 339.190,77.523 340.000,77.633 340.000 C 77.743 340.000,78.628 339.190,79.600 338.200 C 80.572 337.210,81.277 336.400,81.167 336.400 C 81.057 336.400,80.172 337.210,79.200 338.200 M171.200 338.600 C 171.946 339.370,172.647 340.000,172.757 340.000 C 172.867 340.000,172.346 339.370,171.600 338.600 C 170.854 337.830,170.153 337.200,170.043 337.200 C 169.933 337.200,170.454 337.830,171.200 338.600 M174.800 341.384 C 174.800 341.494,175.520 341.951,176.400 342.400 C 177.280 342.849,178.000 343.126,178.000 343.016 C 178.000 342.906,177.280 342.449,176.400 342.000 C 175.520 341.551,174.800 341.274,174.800 341.384 M322.800 342.231 C 322.800 342.501,324.878 343.256,325.076 343.057 C 325.167 342.967,324.692 342.701,324.020 342.467 C 323.349 342.233,322.800 342.127,322.800 342.231 M70.700 344.027 C 69.875 344.463,69.200 344.908,69.200 345.018 C 69.200 345.127,69.920 344.849,70.800 344.400 C 71.680 343.951,72.400 343.497,72.400 343.392 C 72.400 343.130,72.397 343.131,70.700 344.027 M180.800 344.333 C 181.130 344.536,181.850 344.824,182.400 344.971 C 183.095 345.157,183.217 345.125,182.800 344.867 C 182.470 344.664,181.750 344.376,181.200 344.229 C 180.505 344.043,180.383 344.075,180.800 344.333 M329.000 344.800 C 329.440 344.989,330.070 345.144,330.400 345.144 C 330.778 345.144,330.704 345.017,330.200 344.800 C 329.760 344.611,329.130 344.456,328.800 344.456 C 328.422 344.456,328.496 344.583,329.000 344.800 M68.561 346.400 L 68.600 347.400 126.400 347.400 L 184.200 347.400 184.249 346.295 C 184.293 345.283,184.283 345.275,184.122 346.195 L 183.947 347.200 126.400 347.200 L 68.853 347.200 68.688 346.300 C 68.544 345.517,68.528 345.530,68.561 346.400 M331.305 346.000 L 331.400 347.000 277.443 347.101 C 234.678 347.182,223.352 347.099,222.843 346.701 C 222.273 346.257,222.262 346.279,222.749 346.900 C 223.267 347.560,226.341 347.600,277.200 347.600 C 335.025 347.600,332.794 347.677,331.637 345.721 C 331.262 345.088,331.222 345.121,331.305 346.000 " stroke="none" fill="#b4acc4" fill-rule="evenodd"></path>
        <path id="path3" d="M279.375 108.500 L 278.200 109.800 279.500 108.625 C 280.215 107.979,280.800 107.394,280.800 107.325 C 280.800 107.016,280.470 107.288,279.375 108.500 M68.000 346.176 C 68.000 346.713,68.147 347.244,68.328 347.355 C 68.508 347.467,68.577 347.027,68.482 346.379 C 68.272 344.949,68.000 344.835,68.000 346.176 " stroke="none" fill="#9e91b4" fill-rule="evenodd"></path>
        <path id="path4" d="M165.200 187.920 L 165.400 323.400 165.501 188.221 C 165.556 113.872,165.466 52.906,165.301 52.741 C 165.135 52.575,165.090 113.406,165.200 187.920 M81.194 93.003 C 82.787 94.921,82.921 95.045,82.486 94.196 C 82.259 93.753,81.652 93.034,81.137 92.598 C 80.233 91.834,80.235 91.848,81.194 93.003 M87.082 107.000 C 87.209 108.100,87.377 109.075,87.456 109.167 C 87.755 109.514,87.528 106.564,87.197 105.800 C 86.974 105.285,86.933 105.713,87.082 107.000 M87.797 214.600 C 87.797 271.360,87.843 294.521,87.900 266.068 C 87.957 237.615,87.957 191.175,87.900 162.868 C 87.843 134.561,87.797 157.840,87.797 214.600 M247.375 144.900 L 246.200 146.200 247.500 145.025 C 248.215 144.379,248.800 143.794,248.800 143.725 C 248.800 143.416,248.470 143.688,247.375 144.900 M244.778 147.900 L 243.400 149.400 244.900 148.022 C 246.296 146.738,246.584 146.400,246.278 146.400 C 246.212 146.400,245.537 147.075,244.778 147.900 M225.775 169.700 L 224.600 171.000 225.900 169.825 C 226.615 169.179,227.200 168.594,227.200 168.525 C 227.200 168.216,226.870 168.488,225.775 169.700 M214.975 182.100 L 213.800 183.400 215.100 182.225 C 215.815 181.579,216.400 180.994,216.400 180.925 C 216.400 180.616,216.070 180.888,214.975 182.100 M212.175 185.300 L 211.000 186.600 212.300 185.425 C 213.015 184.779,213.600 184.194,213.600 184.125 C 213.600 183.816,213.270 184.088,212.175 185.300 M201.375 197.700 L 200.200 199.000 201.500 197.825 C 202.215 197.179,202.800 196.594,202.800 196.525 C 202.800 196.216,202.470 196.488,201.375 197.700 M234.191 200.009 C 233.588 200.677,233.552 200.905,233.988 201.309 C 234.409 201.700,234.456 201.692,234.219 201.275 C 234.048 200.973,234.220 200.420,234.623 199.975 C 235.008 199.549,235.234 199.200,235.124 199.200 C 235.014 199.200,234.594 199.564,234.191 200.009 M198.378 201.100 L 197.000 202.600 198.500 201.222 C 199.325 200.463,200.000 199.788,200.000 199.722 C 200.000 199.416,199.662 199.704,198.378 201.100 M185.029 216.362 L 183.858 217.800 185.209 216.513 C 185.951 215.805,186.478 215.158,186.379 215.075 C 186.281 214.992,185.673 215.571,185.029 216.362 M87.254 320.800 C 87.219 321.350,87.096 322.250,86.983 322.800 L 86.777 323.800 87.207 322.815 C 87.443 322.274,87.565 321.374,87.478 320.815 L 87.320 319.800 87.254 320.800 M309.200 331.400 C 309.946 332.170,310.647 332.800,310.757 332.800 C 310.867 332.800,310.346 332.170,309.600 331.400 C 308.854 330.630,308.153 330.000,308.043 330.000 C 307.933 330.000,308.454 330.630,309.200 331.400 M68.341 347.701 C 68.507 347.867,94.643 347.957,126.421 347.901 L 184.200 347.800 126.120 347.600 C 94.176 347.490,68.176 347.536,68.341 347.701 M277.200 347.600 L 222.600 347.804 277.076 347.902 C 313.068 347.967,331.637 347.864,331.800 347.600 C 331.936 347.380,331.992 347.244,331.924 347.298 C 331.856 347.352,307.230 347.488,277.200 347.600 " stroke="none" fill="#8c84ac" fill-rule="evenodd"></path>
    </g>
</svg>